<svg viewBox="0 0 800 400" xmlns="http://www.w3.org/2000/svg" preserveAspectRatio="xMidYMid slice">

  <defs>
    <linearGradient id="ng_bg" x1="0" y1="0" x2="1" y2="1">
      <stop offset="0" stop-color="#1a2e35"/>
      <stop offset="0.5" stop-color="#005158"/>
      <stop offset="1" stop-color="#009DA0"/>
    </linearGradient>
    <radialGradient id="ng_glow" cx="0.6" cy="0.5" r="0.6">
      <stop offset="0" stop-color="#a8ebe8" stop-opacity="0.35"/>
      <stop offset="1" stop-color="#1a2e35" stop-opacity="0"/>
    </radialGradient>
  </defs>
  <rect width="800" height="400" fill="url(#ng_bg)"/>
  <rect width="800" height="400" fill="url(#ng_glow)"/>
  <line x1="480" y1="200" x2="700.0" y2="200.0" stroke="white" stroke-width="0.7" opacity="0.55"/>
<line x1="480" y1="200" x2="670.5" y2="310.0" stroke="white" stroke-width="0.7" opacity="0.55"/>
<line x1="480" y1="200" x2="590.0" y2="390.5" stroke="white" stroke-width="0.7" opacity="0.55"/>
<line x1="480" y1="200" x2="480.0" y2="420.0" stroke="white" stroke-width="0.7" opacity="0.55"/>
<line x1="480" y1="200" x2="370.0" y2="390.5" stroke="white" stroke-width="0.7" opacity="0.55"/>
<line x1="480" y1="200" x2="289.5" y2="310.0" stroke="white" stroke-width="0.7" opacity="0.55"/>
<line x1="480" y1="200" x2="260.0" y2="200.0" stroke="white" stroke-width="0.7" opacity="0.55"/>
<line x1="480" y1="200" x2="289.5" y2="90.0" stroke="white" stroke-width="0.7" opacity="0.55"/>
<line x1="480" y1="200" x2="370.0" y2="9.5" stroke="white" stroke-width="0.7" opacity="0.55"/>
<line x1="480" y1="200" x2="480.0" y2="-20.0" stroke="white" stroke-width="0.7" opacity="0.55"/>
<line x1="480" y1="200" x2="590.0" y2="9.5" stroke="white" stroke-width="0.7" opacity="0.55"/>
<line x1="480" y1="200" x2="670.5" y2="90.0" stroke="white" stroke-width="0.7" opacity="0.55"/>
<path d="M516.7,200.0 Q512.1,208.6 511.8,218.3 Q503.5,223.5 498.3,231.8 Q488.6,232.1 480.0,236.7 Q471.4,232.1 461.7,231.8 Q456.5,223.5 448.2,218.3 Q447.9,208.6 443.3,200.0 Q447.9,191.4 448.2,181.7 Q456.5,176.5 461.7,168.2 Q471.4,167.9 480.0,163.3 Q488.6,167.9 498.3,168.2 Q503.5,176.5 511.8,181.7 Q512.1,191.4 516.7,200.0" fill="none" stroke="white" stroke-width="0.7" opacity="0.55"/>
<path d="M553.3,200.0 Q544.2,217.2 543.5,236.7 Q527.0,247.0 516.7,263.5 Q497.2,264.2 480.0,273.3 Q462.8,264.2 443.3,263.5 Q433.0,247.0 416.5,236.7 Q415.8,217.2 406.7,200.0 Q415.8,182.8 416.5,163.3 Q433.0,153.0 443.3,136.5 Q462.8,135.8 480.0,126.7 Q497.2,135.8 516.7,136.5 Q527.0,153.0 543.5,163.3 Q544.2,182.8 553.3,200.0" fill="none" stroke="white" stroke-width="0.7" opacity="0.55"/>
<path d="M590.0,200.0 Q576.3,225.8 575.3,255.0 Q550.5,270.5 535.0,295.3 Q505.8,296.3 480.0,310.0 Q454.2,296.3 425.0,295.3 Q409.5,270.5 384.7,255.0 Q383.7,225.8 370.0,200.0 Q383.7,174.2 384.7,145.0 Q409.5,129.5 425.0,104.7 Q454.2,103.7 480.0,90.0 Q505.8,103.7 535.0,104.7 Q550.5,129.5 575.3,145.0 Q576.3,174.2 590.0,200.0" fill="none" stroke="white" stroke-width="0.7" opacity="0.55"/>
<path d="M626.7,200.0 Q608.3,234.4 607.0,273.3 Q574.0,294.0 553.3,327.0 Q514.4,328.3 480.0,346.7 Q445.6,328.3 406.7,327.0 Q386.0,294.0 353.0,273.3 Q351.7,234.4 333.3,200.0 Q351.7,165.6 353.0,126.7 Q386.0,106.0 406.7,73.0 Q445.6,71.7 480.0,53.3 Q514.4,71.7 553.3,73.0 Q574.0,106.0 607.0,126.7 Q608.3,165.6 626.7,200.0" fill="none" stroke="white" stroke-width="0.7" opacity="0.55"/>
<path d="M663.3,200.0 Q640.4,243.0 638.8,291.7 Q597.4,317.4 571.7,358.8 Q523.0,360.4 480.0,383.3 Q437.0,360.4 388.3,358.8 Q362.6,317.4 321.2,291.7 Q319.6,243.0 296.7,200.0 Q319.6,157.0 321.2,108.3 Q362.6,82.6 388.3,41.2 Q437.0,39.6 480.0,16.7 Q523.0,39.6 571.7,41.2 Q597.4,82.6 638.8,108.3 Q640.4,157.0 663.3,200.0" fill="none" stroke="white" stroke-width="0.7" opacity="0.55"/>
<path d="M700.0,200.0 Q672.5,251.6 670.5,310.0 Q620.9,340.9 590.0,390.5 Q531.6,392.5 480.0,420.0 Q428.4,392.5 370.0,390.5 Q339.1,340.9 289.5,310.0 Q287.5,251.6 260.0,200.0 Q287.5,148.4 289.5,90.0 Q339.1,59.1 370.0,9.5 Q428.4,7.5 480.0,-20.0 Q531.6,7.5 590.0,9.5 Q620.9,59.1 670.5,90.0 Q672.5,148.4 700.0,200.0" fill="none" stroke="white" stroke-width="0.7" opacity="0.55"/>
  <circle cx="516.7" cy="200.0" r="2" fill="white" opacity="0.85"/>
<circle cx="511.8" cy="218.3" r="2" fill="white" opacity="0.85"/>
<circle cx="498.3" cy="231.8" r="2" fill="white" opacity="0.85"/>
<circle cx="480.0" cy="236.7" r="2" fill="white" opacity="0.85"/>
<circle cx="461.7" cy="231.8" r="2" fill="white" opacity="0.85"/>
<circle cx="448.2" cy="218.3" r="2" fill="white" opacity="0.85"/>
<circle cx="443.3" cy="200.0" r="2" fill="white" opacity="0.85"/>
<circle cx="448.2" cy="181.7" r="2" fill="white" opacity="0.85"/>
<circle cx="461.7" cy="168.2" r="2" fill="white" opacity="0.85"/>
<circle cx="480.0" cy="163.3" r="2" fill="white" opacity="0.85"/>
<circle cx="498.3" cy="168.2" r="2" fill="white" opacity="0.85"/>
<circle cx="511.8" cy="181.7" r="2" fill="white" opacity="0.85"/>
<circle cx="590.0" cy="200.0" r="2" fill="white" opacity="0.85"/>
<circle cx="575.3" cy="255.0" r="2" fill="white" opacity="0.85"/>
<circle cx="535.0" cy="295.3" r="2" fill="white" opacity="0.85"/>
<circle cx="480.0" cy="310.0" r="2" fill="white" opacity="0.85"/>
<circle cx="425.0" cy="295.3" r="2" fill="white" opacity="0.85"/>
<circle cx="384.7" cy="255.0" r="2" fill="white" opacity="0.85"/>
<circle cx="370.0" cy="200.0" r="2" fill="white" opacity="0.85"/>
<circle cx="384.7" cy="145.0" r="2" fill="white" opacity="0.85"/>
<circle cx="425.0" cy="104.7" r="2" fill="white" opacity="0.85"/>
<circle cx="480.0" cy="90.0" r="2" fill="white" opacity="0.85"/>
<circle cx="535.0" cy="104.7" r="2" fill="white" opacity="0.85"/>
<circle cx="575.3" cy="145.0" r="2" fill="white" opacity="0.85"/>
<circle cx="663.3" cy="200.0" r="2" fill="white" opacity="0.85"/>
<circle cx="638.8" cy="291.7" r="2" fill="white" opacity="0.85"/>
<circle cx="571.7" cy="358.8" r="2" fill="white" opacity="0.85"/>
<circle cx="480.0" cy="383.3" r="2" fill="white" opacity="0.85"/>
<circle cx="388.3" cy="358.8" r="2" fill="white" opacity="0.85"/>
<circle cx="321.2" cy="291.7" r="2" fill="white" opacity="0.85"/>
<circle cx="296.7" cy="200.0" r="2" fill="white" opacity="0.85"/>
<circle cx="321.2" cy="108.3" r="2" fill="white" opacity="0.85"/>
<circle cx="388.3" cy="41.2" r="2" fill="white" opacity="0.85"/>
<circle cx="480.0" cy="16.7" r="2" fill="white" opacity="0.85"/>
<circle cx="571.7" cy="41.2" r="2" fill="white" opacity="0.85"/>
<circle cx="638.8" cy="108.3" r="2" fill="white" opacity="0.85"/>
  <circle cx="480" cy="200" r="6" fill="#a8ebe8"/>
  <circle cx="480" cy="200" r="14" fill="none" stroke="#a8ebe8" stroke-width="0.5" opacity="0.6"/>

</svg>